<svg width="56" height="51" viewBox="0 0 56 51" fill="none" xmlns="http://www.w3.org/2000/svg">
<g filter="url(#filter0_d_29_118)">
<rect x="4.98175" y="0.885773" width="46.5455" height="41.1429" rx="20.5714" fill="white"/>
<path fill-rule="evenodd" clip-rule="evenodd" d="M28.249 8.08575C24.4676 8.08749 20.8102 9.27132 17.9308 11.4256C15.0514 13.5798 13.1378 16.564 12.532 19.8445C11.9263 23.1251 12.6679 26.488 14.6244 29.332C16.5808 32.176 19.6245 34.3157 23.2112 35.3684C24.0025 35.4982 24.3005 35.0647 24.3005 34.6961C24.3005 34.3275 24.2847 33.2588 24.2794 32.0905C19.8483 32.9366 18.9119 30.4376 18.9119 30.4376C18.1892 28.8149 17.1447 28.3883 17.1447 28.3883C15.6993 27.5214 17.2529 27.5376 17.2529 27.5376C18.8539 27.6373 19.6953 28.9818 19.6953 28.9818C21.1143 31.1215 23.4222 30.5025 24.3295 30.1409C24.4719 29.2345 24.886 28.6179 25.3424 28.2678C21.8027 27.9154 18.0837 26.7146 18.0837 21.3504C18.0618 19.9592 18.6491 18.6138 19.7243 17.5926C19.5608 17.2402 19.0148 15.8169 19.8799 13.8835C19.8799 13.8835 21.2172 13.508 24.2609 15.3185C26.8717 14.691 29.6262 14.691 32.237 15.3185C35.2781 13.508 36.6128 13.8835 36.6128 13.8835C37.4805 15.8122 36.9345 17.2356 36.771 17.5926C37.8496 18.614 38.4382 19.9617 38.4142 21.355C38.4142 26.7309 34.6873 27.9154 31.1424 28.2609C31.7121 28.6967 32.2212 29.5474 32.2212 30.8549C32.2212 32.728 32.2027 34.2348 32.2027 34.6961C32.2027 35.0693 32.4902 35.5052 33.2973 35.3684C36.8844 34.3156 39.9284 32.1755 41.8848 29.331C43.8412 26.4865 44.5825 23.1231 43.9761 19.8422C43.3696 16.5614 41.455 13.5772 38.5746 11.4233C35.6943 9.26944 32.0361 8.08639 28.2542 8.08575H28.249Z" fill="black"/>
<path d="M18.3524 28.1866C18.3182 28.2562 18.1916 28.2771 18.0887 28.2284C17.9858 28.1797 17.9093 28.0893 17.9463 28.0174C17.9832 27.9456 18.1072 27.927 18.21 27.9757C18.3129 28.0244 18.392 28.1171 18.3524 28.1866Z" fill="white"/>
<path d="M18.9985 28.8195C18.9439 28.8437 18.8814 28.8504 18.8217 28.8386C18.7621 28.8268 18.7089 28.7971 18.6715 28.7546C18.5686 28.6572 18.5475 28.5228 18.6266 28.4625C18.7057 28.4022 18.8482 28.43 18.951 28.5274C19.0539 28.6248 19.0776 28.7592 18.9985 28.8195Z" fill="white"/>
<path d="M19.6264 29.6239C19.5288 29.6842 19.3627 29.6239 19.2704 29.5034C19.2448 29.4817 19.2245 29.4558 19.2107 29.4271C19.1968 29.3985 19.1896 29.3676 19.1896 29.3365C19.1896 29.3053 19.1968 29.2744 19.2107 29.2458C19.2245 29.2171 19.2448 29.1912 19.2704 29.1695C19.3679 29.1116 19.5341 29.1695 19.6264 29.2878C19.7188 29.406 19.7214 29.5636 19.6264 29.6239Z" fill="white"/>
<path d="M20.4783 30.4028C20.3913 30.4886 20.2146 30.4654 20.0695 30.3495C19.9245 30.2336 19.8902 30.076 19.9772 29.9925C20.0642 29.9091 20.241 29.9322 20.3913 30.0458C20.5416 30.1594 20.5707 30.3194 20.4783 30.4028Z" fill="white"/>
<path d="M21.6731 30.8572C21.6335 30.9661 21.4541 31.0148 21.2748 30.9684C21.0954 30.9221 20.9767 30.7922 21.011 30.681C21.0453 30.5697 21.2273 30.5187 21.4093 30.5697C21.5913 30.6207 21.7074 30.7436 21.6731 30.8572Z" fill="white"/>
<path d="M22.9762 30.936C22.9762 31.0496 22.8285 31.1469 22.6386 31.1492C22.4486 31.1516 22.293 31.0588 22.293 30.9452C22.293 30.8317 22.4407 30.7343 22.6306 30.732C22.8205 30.7297 22.9762 30.8201 22.9762 30.936Z" fill="white"/>
<path d="M24.1894 30.7575C24.2131 30.8711 24.0812 30.9893 23.8913 31.0171C23.7014 31.045 23.5353 30.9777 23.5115 30.8665C23.4878 30.7552 23.6249 30.6346 23.8096 30.6045C23.9942 30.5744 24.1656 30.6439 24.1894 30.7575Z" fill="white"/>
</g>
<defs>
<filter id="filter0_d_29_118" x="0.98175" y="0.885773" width="54.5455" height="49.1429" filterUnits="userSpaceOnUse" color-interpolation-filters="sRGB">
<feFlood flood-opacity="0" result="BackgroundImageFix"/>
<feColorMatrix in="SourceAlpha" type="matrix" values="0 0 0 0 0 0 0 0 0 0 0 0 0 0 0 0 0 0 127 0" result="hardAlpha"/>
<feOffset dy="4"/>
<feGaussianBlur stdDeviation="2"/>
<feComposite in2="hardAlpha" operator="out"/>
<feColorMatrix type="matrix" values="0 0 0 0 0 0 0 0 0 0 0 0 0 0 0 0 0 0 0.25 0"/>
<feBlend mode="normal" in2="BackgroundImageFix" result="effect1_dropShadow_29_118"/>
<feBlend mode="normal" in="SourceGraphic" in2="effect1_dropShadow_29_118" result="shape"/>
</filter>
</defs>
</svg>
