<svg width="56" height="51" viewBox="0 0 56 51" fill="none" xmlns="http://www.w3.org/2000/svg">
<g filter="url(#filter0_d_29_116)">
<rect x="4.72742" y="0.88562" width="46.5455" height="41.1429" rx="20.5714" fill="white"/>
<path d="M36.4058 11.3664C35.8653 11.1785 35.0794 10.9688 33.6677 10.913L39.8741 26.4776C39.9413 25.1618 39.9579 24.7647 39.9579 21.4636C39.9579 18.1625 39.9413 17.7654 39.8741 16.4496C39.8098 15.1787 39.5612 14.4685 39.3515 13.9833L38.8933 14.181L39.3514 13.983C39.3514 13.9831 39.3514 13.9831 39.3515 13.9832C39.071 13.3332 38.7207 12.8624 38.1813 12.3856C37.6403 11.9074 37.1162 11.6112 36.4058 11.3664ZM36.4058 11.3664C36.4061 11.3665 36.4063 11.3665 36.4065 11.3666L36.2424 11.8389L36.4053 11.3662C36.4054 11.3662 36.4056 11.3663 36.4058 11.3664ZM28.0039 10.839C31.7374 10.839 32.1831 10.8538 33.6675 10.9129L28.0039 10.839ZM28.0039 10.839C24.2781 10.839 23.8248 10.8488 22.3394 10.913M28.0039 10.839L22.3394 10.913M39.3495 28.9484C39.0652 29.5928 38.7226 30.0631 38.1813 30.5416C37.6419 31.0184 37.1175 31.3209 36.4023 31.562L39.3495 28.9484ZM39.3495 28.9484C39.568 28.4573 39.81 27.7454 39.8741 26.4778L39.3495 28.9484ZM16.6582 13.9788C16.4398 14.47 16.1978 15.1819 16.1337 16.4493L16.6582 13.9788ZM16.6582 13.9788C16.9425 13.3344 17.2851 12.8641 17.8265 12.3856C18.3659 11.9088 18.8902 11.6063 19.6054 11.3652L16.6582 13.9788ZM22.3394 10.913C20.9253 10.969 20.1411 11.1843 19.6057 11.3651L22.3394 10.913ZM19.0182 10.2341L19.0175 10.2343C18.1545 10.5284 17.4373 10.923 16.7147 11.5618C15.995 12.1979 15.56 12.8293 15.2275 13.5749C14.9106 14.2984 14.6846 15.1348 14.6209 16.3971L14.6209 16.3972C14.555 17.698 14.5384 18.1097 14.5384 21.4587C14.5384 24.8076 14.555 25.2194 14.6209 26.5251L19.0182 10.2341ZM19.0182 10.2341C19.8541 9.94778 20.8201 9.74444 22.2633 9.68732L19.0182 10.2341ZM15.2285 29.3496C15.5538 30.0955 15.9925 30.7221 16.7147 31.3605C17.4354 31.9975 18.1579 32.3885 19.0195 32.6886C19.855 32.9747 20.8207 33.1779 22.2688 33.235C23.7505 33.2934 24.2141 33.3081 28.0094 33.3081C31.8048 33.3081 32.2684 33.2934 33.75 33.235M15.2285 29.3496L37.0014 32.6879C36.1593 32.9746 35.1929 33.1778 33.75 33.235M15.2285 29.3496C14.9107 28.6201 14.6846 27.783 14.6209 26.5252L15.2285 29.3496ZM33.75 33.235L33.7697 33.7346L33.7499 33.235C33.75 33.235 33.75 33.235 33.75 33.235ZM33.6278 11.9122L33.628 11.9122C34.9432 11.9642 35.6319 12.156 36.0782 12.3112L36.0795 12.3116C36.6772 12.5176 37.0844 12.7507 37.519 13.1348C37.9553 13.5205 38.2148 13.8729 38.4333 14.3794L38.4335 14.3797C38.6007 14.7668 38.8177 15.3601 38.8754 16.5001L38.8754 16.5003C38.9413 17.7914 38.9579 18.1688 38.9579 21.4636C38.9579 24.7584 38.9413 25.1358 38.8754 26.4269L38.8754 26.4271C38.8176 27.5699 38.6051 28.1615 38.4356 28.5426L38.4349 28.5441C38.2093 29.0558 37.9532 29.4086 37.519 29.7923C37.0827 30.178 36.6757 30.4145 36.0826 30.6145L36.0824 30.6146C35.631 30.767 34.9408 30.9631 33.628 31.015L33.6278 31.015C32.1629 31.0734 31.7325 31.0881 28.0039 31.0881C24.2753 31.0881 23.8449 31.0734 22.38 31.015L22.3798 31.015C21.0645 30.963 20.3759 30.7711 19.9296 30.616L19.9283 30.6156C19.3306 30.4096 18.9234 30.1765 18.4888 29.7923C18.0525 29.4067 17.793 29.0543 17.5744 28.5477L17.5743 28.5474C17.407 28.1604 17.19 27.5671 17.1324 26.4271L17.1324 26.4269C17.0665 25.1358 17.0499 24.7584 17.0499 21.4636C17.0499 18.1688 17.0665 17.7914 17.1324 16.5003L17.1324 16.5001C17.1902 15.3572 17.4026 14.7657 17.5722 14.3846L17.5728 14.3831C17.7985 13.8714 18.0546 13.5186 18.4888 13.1348C18.9251 12.7492 19.332 12.5126 19.9251 12.3127L19.9254 12.3126C20.3767 12.1602 21.0669 11.9641 22.3798 11.9122L22.3816 11.9121C23.8448 11.8489 24.2792 11.839 28.0039 11.839C31.7325 11.839 32.1629 11.8537 33.6278 11.9122ZM16.0499 21.4636C16.0499 24.7647 16.0665 25.1618 16.1337 26.4776V16.4496C16.0665 17.7654 16.0499 18.1625 16.0499 21.4636ZM22.2634 9.68731C23.7449 9.62889 24.2141 9.6142 28.0039 9.6142C31.7928 9.6142 32.2633 9.62888 33.7509 9.68245C35.1986 9.7396 36.1641 9.94277 36.9995 10.2288C37.861 10.5289 38.5835 10.9198 39.3042 11.5569C40.0264 12.1952 40.465 12.8219 40.7903 13.5678C41.1082 14.2973 41.3342 15.1345 41.3979 16.3923C41.4638 17.698 41.4805 18.1049 41.4805 21.4587C41.4805 24.8126 41.4638 25.2194 41.3979 26.5252C41.3342 27.7874 41.1083 28.6238 40.7914 29.3472C40.4589 30.0929 40.024 30.7243 39.3042 31.3605C38.5816 31.9993 37.8644 32.3938 37.0016 32.6879L22.2634 9.68731Z" fill="white" stroke="black"/>
<path d="M28.0038 15.1223C24.0454 15.1223 20.8298 17.9597 20.8298 21.4636C20.8298 24.9675 24.0398 27.8049 28.0038 27.8049C31.9678 27.8049 35.1779 24.9675 35.1779 21.4636C35.1779 17.9597 31.9678 15.1223 28.0038 15.1223ZM28.0038 25.5751C25.4314 25.5751 23.3468 23.7325 23.3468 21.4587C23.3468 19.1848 25.4314 17.3422 28.0038 17.3422C30.5763 17.3422 32.6609 19.1848 32.6609 21.4587C32.6609 23.7325 30.5763 25.5751 28.0038 25.5751Z" fill="black"/>
<path d="M35.4606 16.3474C36.3853 16.3474 37.1349 15.6848 37.1349 14.8674C37.1349 14.0501 36.3853 13.3875 35.4606 13.3875C34.5359 13.3875 33.7863 14.0501 33.7863 14.8674C33.7863 15.6848 34.5359 16.3474 35.4606 16.3474Z" fill="black"/>
</g>
<defs>
<filter id="filter0_d_29_116" x="0.727417" y="0.88562" width="54.5455" height="49.1429" filterUnits="userSpaceOnUse" color-interpolation-filters="sRGB">
<feFlood flood-opacity="0" result="BackgroundImageFix"/>
<feColorMatrix in="SourceAlpha" type="matrix" values="0 0 0 0 0 0 0 0 0 0 0 0 0 0 0 0 0 0 127 0" result="hardAlpha"/>
<feOffset dy="4"/>
<feGaussianBlur stdDeviation="2"/>
<feComposite in2="hardAlpha" operator="out"/>
<feColorMatrix type="matrix" values="0 0 0 0 0 0 0 0 0 0 0 0 0 0 0 0 0 0 0.25 0"/>
<feBlend mode="normal" in2="BackgroundImageFix" result="effect1_dropShadow_29_116"/>
<feBlend mode="normal" in="SourceGraphic" in2="effect1_dropShadow_29_116" result="shape"/>
</filter>
</defs>
</svg>
