<svg width="48" height="43" viewBox="0 0 48 43" fill="none" xmlns="http://www.w3.org/2000/svg">
<rect x="0.854919" y="0.885773" width="46.5455" height="41.1429" rx="20.5714" fill="white"/>
<path d="M35.0379 10.1429H13.2174C12.7162 10.1429 12.2355 10.3189 11.8811 10.6322C11.5267 10.9455 11.3276 11.3703 11.3276 11.8134V31.1011C11.3276 31.5441 11.5267 31.969 11.8811 32.2823C12.2355 32.5955 12.7162 32.7715 13.2174 32.7715H35.0379C35.5391 32.7715 36.0197 32.5955 36.3741 32.2823C36.7285 31.969 36.9276 31.5441 36.9276 31.1011V11.8134C36.9276 11.3703 36.7285 10.9455 36.3741 10.6322C36.0197 10.3189 35.5391 10.1429 35.0379 10.1429ZM18.9579 29.4197H15.109V18.6129H18.9579V29.4197ZM17.0307 17.1154C16.5942 17.1132 16.1681 16.9968 15.8063 16.7807C15.4445 16.5647 15.1632 16.2588 14.9979 15.9016C14.8326 15.5444 14.7907 15.152 14.8775 14.7737C14.9643 14.3955 15.176 14.0485 15.4857 13.7765C15.7954 13.5045 16.1893 13.3197 16.6177 13.2454C17.0462 13.1711 17.4899 13.2106 17.8929 13.359C18.2959 13.5074 18.6402 13.758 18.8823 14.0792C19.1243 14.4004 19.2533 14.7777 19.253 15.1637C19.2571 15.422 19.2023 15.6785 19.0919 15.9178C18.9815 16.157 18.8178 16.3742 18.6104 16.5563C18.403 16.7385 18.1563 16.8818 17.8849 16.9779C17.6135 17.0739 17.323 17.1207 17.0307 17.1154ZM33.1445 29.4291H29.2974V23.5252C29.2974 21.7841 28.4601 21.2467 27.3792 21.2467C26.2379 21.2467 25.1179 22.0072 25.1179 23.5692V29.4291H21.269V18.6208H24.9703V20.1184H25.0201C25.3916 19.4537 26.693 18.3175 28.6787 18.3175C30.8263 18.3175 33.1463 19.4442 33.1463 22.7442L33.1445 29.4291Z" fill="black"/>
</svg>
