<svg width="364" height="43" viewBox="0 0 364 43" fill="none" xmlns="http://www.w3.org/2000/svg">
<rect x="238.109" y="0.885773" width="46.5455" height="41.1429" rx="20.5714" fill="white"/>
<path d="M257.123 32.3086C267.445 32.3086 273.088 24.7486 273.088 18.1966C273.088 17.9806 273.088 17.7646 273.077 17.5589C274.17 16.8595 275.125 15.9852 275.881 14.9875C274.88 15.3783 273.798 15.6458 272.658 15.7692C273.821 15.152 274.706 14.1852 275.125 13.0229C274.042 13.5886 272.844 14 271.564 14.2263C270.54 13.2595 269.085 12.6629 267.468 12.6629C264.373 12.6629 261.859 14.8846 261.859 17.6206C261.859 18.0115 261.906 18.392 262.01 18.752C257.344 18.5463 253.213 16.5715 250.444 13.568C249.967 14.2983 249.687 15.152 249.687 16.0572C249.687 17.7749 250.677 19.2972 252.189 20.1818C251.27 20.1612 250.409 19.9349 249.653 19.5646C249.653 19.5852 249.653 19.6058 249.653 19.6263C249.653 22.0332 251.584 24.0286 254.156 24.4915C253.69 24.6046 253.19 24.6663 252.678 24.6663C252.317 24.6663 251.968 24.6355 251.619 24.5738C252.329 26.5486 254.4 27.9783 256.855 28.0195C254.935 29.3463 252.515 30.1383 249.885 30.1383C249.431 30.1383 248.989 30.1178 248.547 30.0663C251.002 31.4858 253.958 32.3086 257.123 32.3086Z" fill="black"/>
<rect x="0.727417" y="0.88562" width="46.5455" height="41.1429" rx="20.5714" fill="white"/>
<path d="M15.0182 10.2341L15.0175 10.2343C14.1545 10.5284 13.4373 10.923 12.7147 11.5618C11.995 12.1979 11.56 12.8293 11.2275 13.5749C10.9106 14.2983 10.6846 15.1347 10.6209 16.3971L10.6209 16.3972C10.555 17.698 10.5384 18.1097 10.5384 21.4587C10.5384 24.8076 10.555 25.2194 10.6209 26.5251L15.0182 10.2341ZM15.0182 10.2341C15.8541 9.94778 16.8201 9.74444 18.2633 9.68732L15.0182 10.2341ZM24.0039 10.839C27.7374 10.839 28.1831 10.8538 29.6675 10.9129L24.0039 10.839ZM24.0039 10.839C20.2781 10.839 19.8248 10.8488 18.3394 10.913C16.9251 10.969 16.1408 11.1844 15.6054 11.3652C14.8902 11.6063 14.3659 11.9088 13.8265 12.3856C13.2851 12.8641 12.9425 13.3344 12.6582 13.9788M24.0039 10.839L12.6582 13.9788M35.8741 16.4496C35.9413 17.7654 35.9579 18.1625 35.9579 21.4636C35.9579 24.7647 35.9413 25.1618 35.8741 26.4776V16.4496ZM35.8741 16.4496C35.8098 15.1787 35.5612 14.4685 35.3515 13.9833L35.8741 16.4496ZM35.3495 28.9484C35.0652 29.5928 34.7226 30.0631 34.1813 30.5416C33.6419 31.0184 33.1175 31.3209 32.4023 31.562C31.8669 31.7428 31.0824 31.9583 29.6677 32.0142C28.1832 32.0734 27.7376 32.0881 24.0039 32.0881C20.2702 32.0881 19.8246 32.0734 18.3401 32.0142C16.9285 31.9584 16.1425 31.7486 15.602 31.5608C14.8916 31.316 14.3675 31.0198 13.8265 30.5416C13.2871 30.0648 12.9368 29.594 12.6564 28.9442C12.4467 28.4589 12.198 27.7488 12.1337 26.4778L35.3495 28.9484ZM35.3495 28.9484C35.568 28.4573 35.81 27.7454 35.8741 26.4778L35.3495 28.9484ZM12.6582 13.9788C12.4398 14.47 12.1978 15.1819 12.1337 16.4493L12.6582 13.9788ZM24.0039 9.6142C20.2141 9.6142 19.7449 9.62889 18.2634 9.68731L24.0039 9.6142ZM24.0039 9.6142C27.7928 9.6142 28.2633 9.62888 29.7509 9.68245C31.1986 9.7396 32.1641 9.94278 32.9995 10.2288C33.861 10.5289 34.5835 10.9198 35.3042 11.5569C36.0263 12.1952 36.465 12.8218 36.7903 13.5676M24.0039 9.6142L37.2487 13.3679M11.2285 29.3496C11.5538 30.0955 11.9924 30.7221 12.7147 31.3605C13.4353 31.9975 14.1577 32.3884 15.0192 32.6885C15.8548 32.9746 16.8206 33.1779 18.2688 33.235C19.7505 33.2934 20.2141 33.3081 24.0094 33.3081C27.8047 33.3081 28.2684 33.2934 29.7499 33.235C31.1929 33.1779 32.1593 32.9746 33.0014 32.6879C33.8643 32.3939 34.5815 31.9993 35.3042 31.3605C36.0239 30.7243 36.4589 30.0929 36.7914 29.3473C37.1083 28.6239 37.3342 27.7875 37.3979 26.5252C37.4638 25.2194 37.4805 24.8126 37.4805 21.4587C37.4805 18.1048 37.4638 17.698 37.3979 16.3922M11.2285 29.3496L37.8973 16.367M11.2285 29.3496C10.9107 28.6201 10.6846 27.783 10.6209 26.5252L11.2285 29.3496ZM37.3979 16.3922L37.8973 16.367M37.3979 16.3922C37.3979 16.3922 37.3979 16.3923 37.3979 16.3923L37.8973 16.367M37.3979 16.3922C37.3342 15.1343 37.1081 14.2972 36.7903 13.5676M37.8973 16.367C37.8308 15.0537 37.5924 14.1569 37.2487 13.3679M36.7903 13.5676C36.7903 13.5676 36.7903 13.5677 36.7903 13.5678L37.2487 13.3679M36.7903 13.5676L37.2487 13.3679M29.6278 11.9122L29.628 11.9122C30.9432 11.9642 31.6319 12.156 32.0782 12.3112L32.0795 12.3116C32.6771 12.5176 33.0844 12.7507 33.519 13.1348C33.9553 13.5205 34.2148 13.8729 34.4333 14.3794L34.4335 14.3797C34.6007 14.7668 34.8177 15.3601 34.8754 16.5001L34.8754 16.5003C34.9413 17.7914 34.9579 18.1688 34.9579 21.4636C34.9579 24.7584 34.9413 25.1358 34.8754 26.4269L34.8754 26.4271C34.8176 27.5699 34.6051 28.1615 34.4356 28.5426L34.4349 28.544C34.2093 29.0558 33.9532 29.4086 33.519 29.7923C33.0827 30.178 32.6757 30.4145 32.0826 30.6145L32.0824 30.6146C31.631 30.767 30.9408 30.9631 29.628 31.015L29.6278 31.015C28.1629 31.0734 27.7325 31.0881 24.0039 31.0881C20.2753 31.0881 19.8449 31.0734 18.38 31.015L18.3798 31.015C17.0645 30.963 16.3759 30.7711 15.9296 30.616L15.9283 30.6156C15.3306 30.4096 14.9234 30.1765 14.4888 29.7923C14.0525 29.4067 13.793 29.0543 13.5744 28.5477L13.5743 28.5474C13.407 28.1604 13.19 27.5671 13.1324 26.4271L13.1324 26.4269C13.0665 25.1358 13.0499 24.7584 13.0499 21.4636C13.0499 18.1688 13.0665 17.7914 13.1324 16.5003L13.1324 16.5001C13.1902 15.3572 13.4026 14.7657 13.5722 14.3846L13.5728 14.3831C13.7985 13.8714 14.0546 13.5186 14.4888 13.1348C14.9251 12.7492 15.332 12.5126 15.9251 12.3127L15.9254 12.3126C16.3767 12.1602 17.0669 11.9641 18.3798 11.9122L18.3816 11.9121C19.8448 11.8489 20.2792 11.839 24.0039 11.839C27.7325 11.839 28.1629 11.8537 29.6278 11.9122ZM34.1813 12.3856C33.6403 11.9074 33.1162 11.6112 32.4058 11.3664L35.3515 13.9832C35.071 13.3332 34.7207 12.8624 34.1813 12.3856ZM12.0499 21.4636C12.0499 24.7647 12.0665 25.1618 12.1337 26.4776V16.4496C12.0665 17.7654 12.0499 18.1625 12.0499 21.4636Z" fill="white" stroke="black"/>
<path d="M24.0038 15.1223C20.0454 15.1223 16.8298 17.9597 16.8298 21.4636C16.8298 24.9675 20.0398 27.8049 24.0038 27.8049C27.9678 27.8049 31.1779 24.9675 31.1779 21.4636C31.1779 17.9597 27.9678 15.1223 24.0038 15.1223ZM24.0038 25.5751C21.4314 25.5751 19.3468 23.7325 19.3468 21.4587C19.3468 19.1848 21.4314 17.3422 24.0038 17.3422C26.5763 17.3422 28.6609 19.1848 28.6609 21.4587C28.6609 23.7325 26.5763 25.5751 24.0038 25.5751Z" fill="black"/>
<path d="M31.4606 16.3474C32.3853 16.3474 33.1349 15.6848 33.1349 14.8674C33.1349 14.0501 32.3853 13.3875 31.4606 13.3875C30.5359 13.3875 29.7863 14.0501 29.7863 14.8674C29.7863 15.6848 30.5359 16.3474 31.4606 16.3474Z" fill="black"/>
<rect x="79.8549" y="0.885773" width="46.5455" height="41.1429" rx="20.5714" fill="white"/>
<path d="M114.038 10.1429H92.2174C91.7162 10.1429 91.2355 10.3189 90.8811 10.6322C90.5267 10.9455 90.3276 11.3703 90.3276 11.8134V31.1011C90.3276 31.5441 90.5267 31.969 90.8811 32.2823C91.2355 32.5955 91.7162 32.7715 92.2174 32.7715H114.038C114.539 32.7715 115.02 32.5955 115.374 32.2823C115.729 31.969 115.928 31.5441 115.928 31.1011V11.8134C115.928 11.3703 115.729 10.9455 115.374 10.6322C115.02 10.3189 114.539 10.1429 114.038 10.1429ZM97.9579 29.4197H94.109V18.6129H97.9579V29.4197ZM96.0307 17.1154C95.5942 17.1132 95.1681 16.9968 94.8063 16.7807C94.4445 16.5647 94.1632 16.2588 93.9979 15.9016C93.8326 15.5444 93.7907 15.152 93.8775 14.7737C93.9643 14.3955 94.176 14.0485 94.4857 13.7765C94.7954 13.5045 95.1893 13.3197 95.6177 13.2454C96.0462 13.1711 96.4899 13.2106 96.8929 13.359C97.2959 13.5074 97.6402 13.758 97.8823 14.0792C98.1243 14.4004 98.2533 14.7777 98.253 15.1637C98.2571 15.422 98.2023 15.6785 98.0919 15.9178C97.9815 16.157 97.8178 16.3742 97.6104 16.5563C97.403 16.7385 97.1563 16.8818 96.8849 16.9779C96.6135 17.0739 96.323 17.1207 96.0307 17.1154ZM112.145 29.4291H108.297V23.5252C108.297 21.7841 107.46 21.2467 106.379 21.2467C105.238 21.2467 104.118 22.0072 104.118 23.5692V29.4291H100.269V18.6208H103.97V20.1184H104.02C104.392 19.4537 105.693 18.3175 107.679 18.3175C109.826 18.3175 112.146 19.4442 112.146 22.7442L112.145 29.4291Z" fill="black"/>
<rect x="158.982" y="0.885773" width="46.5455" height="41.1429" rx="20.5714" fill="white"/>
<path fill-rule="evenodd" clip-rule="evenodd" d="M182.249 8.08575C178.468 8.08749 174.81 9.27132 171.931 11.4256C169.051 13.5798 167.138 16.564 166.532 19.8445C165.926 23.1251 166.668 26.488 168.624 29.332C170.581 32.176 173.625 34.3157 177.211 35.3684C178.002 35.4982 178.301 35.0647 178.301 34.6961C178.301 34.3275 178.285 33.2588 178.279 32.0905C173.848 32.9366 172.912 30.4376 172.912 30.4376C172.189 28.8149 171.145 28.3883 171.145 28.3883C169.699 27.5214 171.253 27.5376 171.253 27.5376C172.854 27.6373 173.695 28.9818 173.695 28.9818C175.114 31.1215 177.422 30.5025 178.33 30.1409C178.472 29.2345 178.886 28.6179 179.342 28.2678C175.803 27.9154 172.084 26.7146 172.084 21.3504C172.062 19.9592 172.649 18.6138 173.724 17.5926C173.561 17.2402 173.015 15.8169 173.88 13.8835C173.88 13.8835 175.217 13.508 178.261 15.3185C180.872 14.691 183.626 14.691 186.237 15.3185C189.278 13.508 190.613 13.8835 190.613 13.8835C191.481 15.8122 190.935 17.2356 190.771 17.5926C191.85 18.614 192.438 19.9617 192.414 21.355C192.414 26.7309 188.687 27.9154 185.142 28.2609C185.712 28.6967 186.221 29.5474 186.221 30.8549C186.221 32.728 186.203 34.2348 186.203 34.6961C186.203 35.0693 186.49 35.5052 187.297 35.3684C190.884 34.3156 193.928 32.1755 195.885 29.331C197.841 26.4865 198.582 23.1231 197.976 19.8422C197.37 16.5614 195.455 13.5772 192.575 11.4233C189.694 9.26944 186.036 8.08639 182.254 8.08575H182.249Z" fill="black"/>
<path d="M172.352 28.1866C172.318 28.2562 172.192 28.2771 172.089 28.2284C171.986 28.1797 171.909 28.0893 171.946 28.0174C171.983 27.9456 172.107 27.927 172.21 27.9757C172.313 28.0244 172.392 28.1171 172.352 28.1866Z" fill="white"/>
<path d="M172.999 28.8195C172.944 28.8437 172.881 28.8504 172.822 28.8386C172.762 28.8268 172.709 28.7971 172.671 28.7546C172.569 28.6572 172.547 28.5228 172.627 28.4625C172.706 28.4022 172.848 28.43 172.951 28.5274C173.054 28.6248 173.078 28.7592 172.999 28.8195Z" fill="white"/>
<path d="M173.626 29.6239C173.529 29.6842 173.363 29.6239 173.27 29.5034C173.245 29.4817 173.225 29.4558 173.211 29.4271C173.197 29.3985 173.19 29.3676 173.19 29.3365C173.19 29.3053 173.197 29.2744 173.211 29.2458C173.225 29.2171 173.245 29.1912 173.27 29.1695C173.368 29.1116 173.534 29.1695 173.626 29.2878C173.719 29.406 173.721 29.5636 173.626 29.6239Z" fill="white"/>
<path d="M174.478 30.4028C174.391 30.4886 174.215 30.4654 174.07 30.3495C173.924 30.2336 173.89 30.076 173.977 29.9925C174.064 29.9091 174.241 29.9322 174.391 30.0458C174.542 30.1594 174.571 30.3194 174.478 30.4028Z" fill="white"/>
<path d="M175.673 30.8572C175.633 30.9661 175.454 31.0148 175.275 30.9684C175.095 30.9221 174.977 30.7922 175.011 30.681C175.045 30.5697 175.227 30.5187 175.409 30.5697C175.591 30.6207 175.707 30.7436 175.673 30.8572Z" fill="white"/>
<path d="M176.976 30.936C176.976 31.0496 176.828 31.1469 176.639 31.1492C176.449 31.1516 176.293 31.0588 176.293 30.9452C176.293 30.8317 176.441 30.7343 176.631 30.732C176.821 30.7297 176.976 30.8201 176.976 30.936Z" fill="white"/>
<path d="M178.189 30.7575C178.213 30.8711 178.081 30.9893 177.891 31.0171C177.701 31.045 177.535 30.9777 177.512 30.8665C177.488 30.7552 177.625 30.6346 177.81 30.6045C177.994 30.5744 178.166 30.6439 178.189 30.7575Z" fill="white"/>
<g clip-path="url(#clip0_29_114)">
<rect x="317.236" y="0.885773" width="46.5455" height="41.1429" rx="20.5714" fill="white"/>
<path d="M349.568 27.4037L350.6 21.4572H344.145V17.6001C344.145 15.9728 345.045 14.3858 347.936 14.3858H350.873V9.32329C350.873 9.32329 348.209 8.92151 345.663 8.92151C340.345 8.92151 336.873 11.7702 336.873 16.9251V21.4572H330.963V27.4037H336.873V41.7795C338.059 41.9443 339.273 42.0287 340.509 42.0287C341.745 42.0287 342.959 41.9443 344.145 41.7795V27.4037H349.568Z" fill="black"/>
</g>
<defs>
<clipPath id="clip0_29_114">
<rect x="317.236" y="0.885773" width="46.5455" height="41.1429" rx="20.5714" fill="white"/>
</clipPath>
</defs>
</svg>
