<svg width="47" height="43" viewBox="0 0 47 43" fill="none" xmlns="http://www.w3.org/2000/svg">
<rect x="0.109314" y="0.885773" width="46.5455" height="41.1429" rx="20.5714" fill="white"/>
<path d="M19.1231 32.3086C29.4446 32.3086 35.0882 24.7486 35.0882 18.1966C35.0882 17.9806 35.0882 17.7646 35.0766 17.5589C36.1704 16.8595 37.1246 15.9852 37.8809 14.9875C36.8802 15.3783 35.798 15.6458 34.6577 15.7692C35.8213 15.152 36.7057 14.1852 37.1246 13.0229C36.0424 13.5886 34.8438 14 33.5638 14.2263C32.5398 13.2595 31.0853 12.6629 29.4678 12.6629C26.3726 12.6629 23.8591 14.8846 23.8591 17.6206C23.8591 18.0115 23.9057 18.392 24.0104 18.752C19.3442 18.5463 15.2133 16.5715 12.4438 13.568C11.9668 14.2983 11.6875 15.152 11.6875 16.0572C11.6875 17.7749 12.6766 19.2972 14.1893 20.1818C13.27 20.1612 12.4089 19.9349 11.6526 19.5646C11.6526 19.5852 11.6526 19.6058 11.6526 19.6263C11.6526 22.0332 13.5842 24.0286 16.1558 24.4915C15.6904 24.6046 15.19 24.6663 14.678 24.6663C14.3173 24.6663 13.9682 24.6355 13.6191 24.5738C14.3289 26.5486 16.4002 27.9783 18.8555 28.0195C16.9355 29.3463 14.5151 30.1383 11.8853 30.1383C11.4315 30.1383 10.9893 30.1178 10.5471 30.0663C13.0024 31.4858 15.958 32.3086 19.1231 32.3086Z" fill="black"/>
</svg>
